<svg xmlns="http://www.w3.org/2000/svg" xmlns:xlink="http://www.w3.org/1999/xlink" width="166" height="112" viewBox="0 0 166 112"><defs><path id="a" d="M4.662 1.543h70a4 4 0 0 1 4 4v91a4 4 0 0 1-4 4h-70a4 4 0 0 1-4-4v-91a4 4 0 0 1 4-4z"/><path id="b" d="M4.662.543h70a4 4 0 0 1 4 4v91a4 4 0 0 1-4 4h-70a4 4 0 0 1-4-4v-91a4 4 0 0 1 4-4z"/><ellipse id="c" cx="12.029" cy="12.045" rx="12.029" ry="12.045"/><path id="e" d="M.107.05H9.78v9.67H.107V.05z"/><path id="g" d="M4.087.996h70a4 4 0 0 1 4 4v91a4 4 0 0 1-4 4h-70a4 4 0 0 1-4-4v-91a4 4 0 0 1 4-4z"/><path id="h" d="M4 0h70a4 4 0 0 1 4 4v91a4 4 0 0 1-4 4H4a4 4 0 0 1-4-4V4a4 4 0 0 1 4-4z"/><ellipse id="i" cx="12.029" cy="12.045" rx="12.029" ry="12.045"/></defs><g fill="none" fill-rule="evenodd"><g transform="translate(0 11)"><use fill="#FFF" xlink:href="#a"/><path stroke="#E8E8E8" d="M4.662 2.043a3.5 3.5 0 0 0-3.5 3.5v91a3.5 3.5 0 0 0 3.5 3.5h70a3.5 3.5 0 0 0 3.5-3.5v-91a3.5 3.5 0 0 0-3.5-3.5h-70z"/><use fill="#FFF" xlink:href="#b"/><path stroke="#E8E8E8" d="M4.662 1.043a3.5 3.5 0 0 0-3.5 3.5v91a3.5 3.5 0 0 0 3.5 3.5h70a3.5 3.5 0 0 0 3.5-3.5v-91a3.5 3.5 0 0 0-3.5-3.5h-70z"/><rect width="10.5" height="10.5" x="10.75" y="42.75" stroke="#A9A9A9" stroke-width="1.5" rx="3"/><path stroke="#D8D8D8" stroke-linecap="round" stroke-linejoin="round" stroke-width="2" d="M27.5 45.5h30m-30 5h30"/><rect width="10.5" height="10.5" x="10.75" y="59.75" stroke="#A9A9A9" stroke-width="1.5" rx="3"/><path stroke="#D8D8D8" stroke-linecap="round" stroke-linejoin="round" stroke-width="2" d="M27.5 62.5h30m-30 5h30"/><g transform="translate(9 10)"><mask id="d" fill="#fff"><use xlink:href="#c"/></mask><use fill="#2CDACB" xlink:href="#c"/><g mask="url(#d)"><path fill="#BF7652" d="M19.812 21.271a3.861 3.861 0 0 0-1.2-.558l-.458-.122.01-.002-3.604-1.173c-.29-.078-.452-.316-.504-.582-.146-.752-.129-2.562-.125-2.886 0-.025-.022-.044-.05-.044H9.96c-.029 0-.052.02-.052.044.004.32.018 2.094-.125 2.886-.048.267-.213.504-.503.582L5.678 20.59l.009.003-.469.124a3.728 3.728 0 0 0-1.048.459c-1.648 1.079-1.695 2.845-1.763 3.174-.006.028.018.054.05.054h18.926c.033 0 .057-.026.05-.054-.065-.319-.09-1.993-1.621-3.078"/><path fill="#F9B353" d="M19.812 21.271a3.861 3.861 0 0 0-1.2-.558l-.458-.122.01-.002-3.1-1.009c-.97.369-2.03.573-3.144.573a8.828 8.828 0 0 1-3.143-.573l-3.1 1.009c.004 0 .007.002.01.003l-.469.124a3.728 3.728 0 0 0-1.048.459c-1.648 1.079-1.695 2.845-1.763 3.174-.006.028.018.054.05.054h18.926c.033 0 .057-.026.05-.054-.065-.319-.09-1.993-1.621-3.078"/><path fill="#C58358" d="M11.877 5.466c-4.663-.155-4.732 4.317-4.662 5.79.051 1.073.306 2.633.533 3.408.13.445.367 1.189.705 1.512.91.869 2.04 1.64 2.738 1.906.126.049.402.07.686.068.284.002.56-.02.686-.068.699-.267 1.828-1.037 2.738-1.906.338-.323.575-1.067.705-1.512.227-.775.481-2.335.532-3.408.07-1.473.002-5.945-4.661-5.79"/><path fill="#211208" d="M7.981 15.249c.131.356.303.724.515.927.91.869 2.04 1.64 2.738 1.906.126.049.402.07.686.068.284.002.56-.02.686-.068.699-.267 1.829-1.037 2.738-1.906.213-.203.385-.571.516-.927l-3.94 1.932-3.939-1.932z"/><g transform="translate(6.977 2.841)"><mask id="f" fill="#fff"><use xlink:href="#e"/></mask><path fill="#211208" d="M5.534.05c-.009.636-.508 1.165-1.056 1.486-.548.322-1.17.506-1.704.851-.137.083-.38.272-.577.49C1.52 3.228.99 3.713.644 4.27a.601.601 0 0 0-.081.229C.038 5.504.12 6.67.107 7.515c.034.557.074 1.61.246 2.103.14-.758.263-2.044.436-2.808.127-.56.307-1.108.536-1.634 1.16-1.217 5.984-1.162 7.237 0 .23.526.409 1.074.536 1.634.173.764.188 2.153.327 2.91.172-.492.32-1.648.355-2.205-.014-.844.069-2.011-.456-3.017a.605.605 0 0 0-.081-.229 3.63 3.63 0 0 0-.671-.79c.002-.266-.11-.559-.245-.798A6.507 6.507 0 0 0 5.534.05" mask="url(#f)"/></g></g></g></g><g transform="rotate(5 20.925 622.003)"><use fill="#FFF" xlink:href="#g"/><path stroke="#E8E8E8" d="M4.087 1.496a3.5 3.5 0 0 0-3.5 3.5v91a3.5 3.5 0 0 0 3.5 3.5h70a3.5 3.5 0 0 0 3.5-3.5v-91a3.5 3.5 0 0 0-3.5-3.5h-70z"/><use fill="#FFF" xlink:href="#h"/><path stroke="#E8E8E8" d="M4 .5A3.5 3.5 0 0 0 .5 4v91A3.5 3.5 0 0 0 4 98.5h70a3.5 3.5 0 0 0 3.5-3.5V4A3.5 3.5 0 0 0 74 .5H4z"/><rect width="10.5" height="10.5" x="9.75" y="41.75" stroke="#A9A9A9" stroke-width="1.5" rx="3"/><path stroke="#D8D8D8" stroke-linecap="round" stroke-linejoin="round" stroke-width="2" d="M26.5 44.5h30m-30 5h30"/><rect width="10.5" height="10.5" x="9.75" y="58.75" stroke="#A9A9A9" stroke-width="1.5" rx="3"/><path stroke="#D8D8D8" stroke-linecap="round" stroke-linejoin="round" stroke-width="2" d="M26.5 61.5h30m-30 5h30"/><g transform="translate(8 9)"><mask id="j" fill="#fff"><use xlink:href="#i"/></mask><use fill="#F381C1" xlink:href="#i"/><g mask="url(#j)"><path fill="#F9D5B4" d="M9.517 22.285c1.4.394 2.156 1.07 2.545 1.569.387-.499 1.143-1.178 2.548-1.574 1.749-.493 2.248-1.536 2.39-2.07l-2.798-.852c-.26-.077-.406-.31-.452-.572-.131-.74-.116-2.69-.112-3.007 0-.025-.02-.044-.046-.044h-3.207a.045.045 0 0 0-.046.044c.004.314.017 2.228-.112 3.007-.043.262-.191.495-.451.572l-2.66.81c.124.518.6 1.609 2.4 2.117"/><path fill="#F9D5B4" d="M18.913 21.012a3.337 3.337 0 0 0-1.077-.548l-3.634-1.106c-.26-.077-.405-.31-.452-.572-.131-.74-.116-2.69-.112-3.007 0-.025-.02-.044-.046-.044h-3.207a.045.045 0 0 0-.046.044c.003.314.017 2.228-.112 3.007-.043.262-.191.495-.451.572L6.13 20.467a3.201 3.201 0 0 0-.94.45c-1.478 1.062-1.52 2.798-1.581 3.121a.045.045 0 0 0 .045.053h16.667c.03 0 .051-.025.046-.053-.06-.313-.082-1.96-1.455-3.026"/><path fill="#F94831" d="M7.16 20.155l-.558.254v.02l.562-.254-.004-.02"/><path fill="#C17BC7" d="M6.602 20.323l-.47.144a3.201 3.201 0 0 0-.94.45c-1.48 1.063-1.522 2.798-1.582 3.121a.045.045 0 0 0 .045.053h16.667c.03 0 .051-.025.046-.053-.06-.313-.082-1.96-1.455-3.026a3.337 3.337 0 0 0-1.077-.548l-.312-.095v3.686H6.602v-3.732l.513-.156c.125.519.6 1.61 2.402 2.118 1.4.394 2.156 1.071 2.544 1.569.388-.499 1.144-1.178 2.55-1.574 1.748-.493 2.247-1.536 2.389-2.07l.524.159v3.686H6.602v-3.732z"/><path fill="#F4C19A" d="M13.646 17.416a46.763 46.763 0 0 1-.008-1.467c0-.025-.02-.044-.046-.044h-3.207a.045.045 0 0 0-.046.044c.002.169.006.8-.01 1.467a5.253 5.253 0 0 0 3.317 0"/><path fill="#F9D5B4" d="M11.989 5.132c-4.918-.188-4.99 4.389-4.916 5.894.053 1.092.493 2.68.73 3.469.137.452.383.87.737 1.2 1.284 1.195 3.449 1.6 3.449 1.6s2.165-.405 3.448-1.6c.354-.33.6-.748.737-1.2.237-.789.677-2.377.73-3.47.07-1.45 1.397-6.135-4.915-5.893"/><path fill="#674C4C" d="M12.705 3.693c-.998.004-1.9.452-2.403 1.134a.537.537 0 0 0-.14-.067c-.802-.239-1.681.01-2.335.661-.653.651-1.364 1.691-1.365 2.763 0 .108.002.211.006.312.197.654.362 1.321.573 1.956.155.464.328.992.566 1.482l.046-.073-.005-.036a2.941 2.941 0 0 1-.096-1.164c-.006-1.251.336-2.538 1.59-2.947.047-.016.63-.312.978-.654.659 1.4 2.359 2.363 4.063 2.278-.279-.341-.457-.734-.614-1.134.41.372.927.634 1.392.95.572.388 1.114.952 1.112 1.632a3.174 3.174 0 0 0 .294-1.809c.02.082.036.16.046.235a7.499 7.499 0 0 1-.2 3.007c.482-.742.945-1.508 1.205-2.349.204-.66.284-1.411.114-2.096-.022-.785-.327-1.566-.885-2.225-.754-.888-1.958-1.545-3.3-1.797a3.385 3.385 0 0 0-.616-.06h-.026z"/></g></g></g><path fill="#B9B8BD" d="M156.881 55.387a1.8 1.8 0 0 1-.289-.156c-.882-.58-1.115-1.815-.52-2.759l6.162-9.765c.595-.944 1.801-1.236 2.674-.656.883.58 1.116 1.816.52 2.759l-6.161 9.765c-.533.844-1.546 1.168-2.386.812"/><path fill="#B25BB9" d="M141.982 83.525l-4.581-3.017 21.43-33.965 4.583 3.017z"/><path fill="#DCDBE0" d="M137.4 80.508l-2.756 9.153.316.208 7.022-6.344zm27.151-32.751l-4.582-3.017-1.138 1.803 4.583 3.017z"/><path fill="#B9B8BD" d="M163.698 49.109l-4.582-3.017-.57.902 4.583 3.017z"/><path fill="#DCDBE0" d="M151.008 62.195a.6.6 0 0 1-.096-.052c-.294-.193-.372-.605-.173-.92l8.56-13.567c.198-.314.598-.41.892-.218.294.193.371.605.173.92l-8.561 13.567a.648.648 0 0 1-.795.27"/></g></svg>