<?xml version="1.0" standalone="no"?><!DOCTYPE svg PUBLIC "-//W3C//DTD SVG 1.1//EN" "http://www.w3.org/Graphics/SVG/1.1/DTD/svg11.dtd"><svg t="1553667330198" class="icon" style="" viewBox="0 0 1254 1024" version="1.1" xmlns="http://www.w3.org/2000/svg" p-id="9452" xmlns:xlink="http://www.w3.org/1999/xlink" width="244.921875" height="200"><defs><style type="text/css"></style></defs><path d="M147.28293 950.877746c8.264113 0 13.759099 5.509408 13.759098 13.759099 0 8.264113-5.494986 13.759099-13.759098 13.759099H13.759099c-8.24969 0-13.759099-5.494986-13.759099-13.759099 0-8.24969 5.509408-13.759099 13.759099-13.759099h133.523831z m1025.471098-104.62107c8.264113 0 13.773521 5.509408 13.773521 13.773521 0 8.24969-5.509408 13.759099-13.773521 13.759099h-232.635493v35.78231c0 38.551437-30.258479 68.824338-68.795493 68.824338H830.016901c0 8.264113-4.124845 16.528225-9.634253 23.407774-13.759099 13.759099-34.412169 13.759099-48.171268 0l-22.037634-23.407774h-534.066478c-8.264113 0-13.759099-5.494986-13.759099-13.759099 0-8.24969 5.494986-13.759099 13.759099-13.759099h60.574647a70.77138 70.77138 0 0 1-13.773521-41.30614V221.342648c0-38.537014 30.287324-68.824338 68.824338-68.824338h44.046423V116.736c0-38.551437 30.287324-68.824338 68.824338-68.824338h540.960451c38.537014 0 68.824338 30.287324 68.824338 68.824338v688.24338c0 15.129239-5.509408 30.272901-13.773521 41.277296h132.139267z m-217.491831 0h28.917183c23.407775 0 41.291718-17.883944 41.291719-41.291718V116.721577c0-23.393352-17.883944-41.277296-41.291719-41.277295H443.21893c-23.393352 0-41.291718 17.883944-41.291719 41.291718v35.78231h470.75155c38.551437 0 68.838761 30.287324 68.83876 68.824338v624.928451h13.759099zM631.822423 811.844507a119.620507 119.620507 0 0 0 0-169.306141c-22.023211-22.008789-52.310535-34.412169-83.968-34.412169-31.657465 0-61.944789 12.40338-83.968 34.412169a119.63493 119.63493 0 0 0 0 169.320564 118.740732 118.740732 0 0 0 83.968 34.397746c30.287324 0 60.574648-12.388958 83.968-34.412169z m-144.542648-126.629859c2.754704 1.370141 4.139268 5.509408 2.754704 9.634253-9.634254 16.513803-11.004394 38.537014-4.124845 56.435381 1.370141 4.139268 0 6.879549-4.124845 9.634253h-2.754704a7.557408 7.557408 0 0 1-6.87955-4.124845c-8.264113-22.023211-6.879549-48.171268 4.124845-68.824338a10.701521 10.701521 0 0 1 11.004395-2.754704z m426.719549 224.356958V221.342648c0-23.407775-17.883944-41.291718-41.291718-41.291718H330.362592c-23.407775 0-41.306141 17.883944-41.306141 41.291718v688.24338c0 23.393352 17.898366 41.291718 41.306141 41.291718h392.292957l-38.551436-38.551436a34.671775 34.671775 0 0 1-8.24969-35.767887l-34.412169-35.796733a145.335887 145.335887 0 0 1-93.602254 34.412169c-39.921577 0-75.71831-15.143662-104.62107-42.676282a146.230085 146.230085 0 0 1 0-207.843154c27.547042-27.547042 64.699493-42.690704 104.62107-42.690705 39.907155 0 75.71831 15.143662 104.606648 42.690705 53.680676 53.680676 56.43538 140.388958 9.634253 198.208901l35.796733 35.78231c12.388958-4.124845 26.148056-2.740282 35.78231 8.264112l85.338141 85.338141h53.695098c22.008789-1.370141 41.291718-19.268507 41.291718-42.676281z m-498.298592-587.747155c-8.24969 0-13.759099-5.509408-13.759098-13.759099 0-8.264113 5.509408-13.773521 13.759098-13.773521h240.885183c8.264113 0 13.773521 5.509408 13.773522 13.773521 0 8.24969-5.509408 13.759099-13.773522 13.759099H415.68631z m320.728338 60.574648c8.264113 0 13.759099 5.494986 13.759099 13.759098 0 8.24969-5.494986 13.759099-13.759099 13.759099H419.84c-8.278535 0-13.773521-5.509408-13.773521-13.759099 0-8.264113 5.494986-13.773521 13.759098-13.773521h316.574648zM582.237746 470.463099c8.264113 0 13.773521 5.509408 13.773522 13.773521 0 8.24969-5.509408 13.759099-13.759099 13.759098H412.917183c-8.24969 0-13.744676-5.509408-13.744676-13.759098 0-8.264113 5.494986-13.773521 13.759099-13.773521H582.237746zM83.982423 195.194592c0 15.143662-12.40338 27.518197-27.547043 27.518197a27.604732 27.604732 0 0 1-27.518197-27.518197c0-15.143662 12.40338-27.547042 27.53262-27.547043 15.143662 0 27.53262 12.40338 27.53262 27.547043z m27.518197 0c0-30.287324-24.763493-55.065239-55.050817-55.06524a55.223887 55.223887 0 0 0-55.06524 55.06524c0 30.287324 24.777915 55.050817 55.06524 55.050816s55.050817-24.777915 55.050817-55.050816z m1083.291042 64.68507c0-8.24969 5.509408-13.759099 13.773521-13.759099 8.24969 0 13.759099 5.509408 13.759099 13.759099 0 8.264113-5.509408 13.773521-13.759099 13.773521-8.264113 0-13.773521-5.509408-13.773521-13.773521z m-27.53262 0c0 23.407775 17.898366 41.291718 41.306141 41.291718 23.393352 0 41.291718-17.883944 41.291718-41.291718 0-23.393352-17.883944-41.291718-41.291718-41.291718s-41.306141 17.883944-41.306141 41.291718zM202.348169 75.444282c0 8.24969 5.494986 13.759099 13.759099 13.759098s13.759099-5.509408 13.759098-13.759098V58.916056h16.513803c8.264113 0 13.773521-5.509408 13.773521-13.759098 0-8.264113-5.509408-13.773521-13.773521-13.773521h-16.513803V14.869634c0-8.264113-5.494986-13.759099-13.759098-13.759099s-13.759099 5.494986-13.759099 13.759099v16.513803h-16.528225c-8.24969 0-13.759099 5.509408-13.759099 13.773521 0 8.24969 5.509408 13.759099 13.759099 13.759098h16.528225v16.528226z m-49.555831 385.398986v-16.513803c0-8.264113-5.509408-13.759099-13.773521-13.759099-8.24969 0-13.759099 5.494986-13.759099 13.759099v16.513803H108.745915c-8.264113 0-13.773521 5.509408-13.773521 13.773521s5.509408 13.759099 13.773521 13.759098h16.513803v16.513803c0 8.264113 5.509408 13.773521 13.759099 13.773521 8.264113 0 13.773521-5.509408 13.773521-13.773521v-16.513803h16.513803c8.264113 0 13.759099-5.494986 13.759098-13.759098s-5.494986-13.773521-13.759098-13.773521h-16.513803z" fill="#CCCCCC" p-id="9453"></path></svg>