<?xml version="1.0" standalone="no"?><!DOCTYPE svg PUBLIC "-//W3C//DTD SVG 1.1//EN" "http://www.w3.org/Graphics/SVG/1.1/DTD/svg11.dtd"><svg t="1552964644239" class="icon" style="" viewBox="0 0 1290 1024" version="1.1" xmlns="http://www.w3.org/2000/svg" p-id="34164" xmlns:xlink="http://www.w3.org/1999/xlink" width="251.953125" height="200"><defs><style type="text/css"></style></defs><path d="M44.186301 849.358904H6.312329c-3.506849 0-6.312329-2.10411-6.312329-4.909589s2.805479-4.909589 6.312329-4.909589h38.575342c3.506849 0 6.312329 2.10411 6.312329 4.909589-0.70137 2.10411-3.506849 4.909589-7.013699 4.909589z m110.115069 0H65.928767c-3.506849 0-6.312329-2.10411-6.312329-4.909589s2.805479-4.909589 6.312329-4.909589h87.671233c3.506849 0 6.312329 2.10411 6.312329 4.909589 0 2.10411-2.805479 4.909589-5.610959 4.909589z m1129.906849 0h-38.575342c-1.40274 0-3.506849-0.70137-4.208219-1.40274-1.40274-0.70137-1.40274-2.10411-1.40274-3.506849s0.70137-2.805479 1.40274-3.506849c1.40274-0.70137 2.805479-1.40274 4.208219-1.40274h38.575342c1.40274 0 3.506849 0.70137 4.208219 1.40274 1.40274 0.70137 1.40274 2.10411 1.40274 3.506849s-0.70137 2.805479-1.40274 3.506849c-1.40274 0.70137-2.805479 1.40274-4.208219 1.40274z m-60.317808 0H1136.219178c-1.40274 0-3.506849-0.70137-4.208219-1.40274-1.40274-0.70137-1.40274-2.10411-1.40274-3.506849s0.70137-2.805479 1.40274-3.506849c1.40274-0.70137 2.805479-1.40274 4.208219-1.40274h87.671233c1.40274 0 3.506849 0.70137 4.208219 1.40274 1.40274 0.70137 1.40274 2.10411 1.40274 3.506849s-0.70137 2.805479-1.40274 3.506849c-1.40274 0.70137-2.805479 1.40274-4.208219 1.40274z m-114.323288 0H180.953425c-3.506849 0-6.312329-2.10411-6.312329-4.909589s2.805479-4.909589 6.312329-4.909589h928.613698c1.40274 0 3.506849 0.70137 4.208219 1.40274 1.40274 0.70137 1.40274 2.10411 1.40274 3.506849s-0.70137 2.805479-1.40274 3.506849c-0.70137 0.70137-2.10411 1.40274-4.208219 1.40274zM328.942466 906.871233h-38.575343c-3.506849 0-6.312329-2.10411-6.312328-4.909589 0-2.805479 2.805479-4.909589 6.312328-4.909589h38.575343c3.506849 0 6.312329 2.10411 6.312329 4.909589 0 2.10411-2.805479 4.909589-6.312329 4.909589z m260.208219 0H363.309589c-3.506849 0-6.312329-2.10411-6.312329-4.909589 0-2.805479 2.805479-4.909589 6.312329-4.909589H589.150685c3.506849 0 6.312329 2.10411 6.312329 4.909589 0 2.10411-2.805479 4.909589-6.312329 4.909589z m409.6 0h-61.720548c-1.40274 0-3.506849-0.70137-4.208219-1.40274-1.40274-0.70137-1.40274-2.10411-1.40274-3.506849s0.70137-2.805479 1.40274-3.506849c1.40274-0.70137 2.805479-1.40274 4.208219-1.40274h61.720548c1.40274 0 3.506849 0.70137 4.208219 1.40274 1.40274 0.70137 1.40274 2.10411 1.40274 3.506849s-0.70137 2.805479-1.40274 3.506849-2.805479 1.40274-4.208219 1.40274z m-101.69863 0H633.336986c-3.506849 0-6.312329-2.10411-6.312328-4.909589 0-2.805479 2.805479-4.909589 6.312328-4.909589h263.715069c3.506849 0 6.312329 2.10411 6.312329 4.909589 0 2.10411-2.805479 4.909589-6.312329 4.909589z" fill="#638BBF" p-id="34165"></path><path d="M462.90411 1011.375342h38.575342v9.819179H462.90411v-9.819179z m72.241095 0h226.542466v9.819179H535.145205v-9.819179z m270.027398 0h21.041096v9.819179h-21.041096v-9.819179z" fill="#BCD9F2" p-id="34166"></path><path d="M614.4 121.336986L843.747945 540.054795c26.652055 49.79726 28.756164 49.09589-26.652055 78.553424l-393.468493 209.709589c-29.457534 15.430137-49.79726 17.534247-64.526027-10.520548L91.879452 317.720548c-21.742466-40.679452-21.742466-52.60274 18.936986-74.345206l323.331507-172.536986" fill="#F7F8F8" p-id="34167"></path><path d="M614.4 121.336986l229.347945 413.808219c25.249315 47.693151 28.054795 46.290411-25.249315 75.046576l-375.232877 200.591781c-28.054795 14.728767-47.693151 16.131507-61.720548-9.819178L126.246575 323.331507c-21.041096-38.575342-20.339726-50.49863 18.235617-70.838356l308.60274-164.821918" fill="#CFE3F6" p-id="34168"></path><path d="M444.668493 81.358904l51.2 81.358904 14.027397 7.715069 85.567124-46.290411-145.183562-58.213699z" fill="#BCD9F2" p-id="34169"></path><path d="M829.720548 614.4l-397.676712 212.515068c-49.09589 25.950685-56.109589 27.353425-74.345206-6.312328L84.164384 308.60274c-22.443836-42.082192-9.819178-49.79726 31.561643-71.539726L441.863014 63.123288l184.460274 60.317808 223.035616 414.509589c27.353425 51.2 24.547945 52.60274-19.638356 76.449315zM453.084932 79.254795L490.958904 150.093151c5.610959 10.520548 23.145205 14.728767 33.665754 9.117808l64.526027-34.367123-136.065753-45.589041z m160.613698 43.484931l-78.553425 42.783562c-31.561644 16.832877-44.887671 6.312329-56.810958-16.131507l-39.978083-75.046576-340.865753 183.057535c-14.027397 7.715068-16.832877 23.145205-11.221918 32.964383l283.353425 528.832877c7.013699 13.326027 19.638356 16.832877 33.665753 9.117808L838.838356 596.164384c19.638356-10.520548 16.131507-23.145205 11.221918-32.964384L613.69863 122.739726z" fill="#638BBF" p-id="34170"></path><path d="M554.783562 252.493151c4.909589 8.416438 0 20.339726-10.520548 25.950685l-301.589041 160.613698c-10.520548 5.610959-22.443836 2.805479-27.353425-5.610959-4.909589-8.416438 0-20.339726 10.520548-25.950685l300.887671-160.613698c11.221918-5.610959 23.145205-3.506849 28.054795 5.610959zM215.320548 342.268493c1.40274 11.221918-7.013699 22.443836-18.235616 23.846575-11.923288 1.40274-22.443836-7.013699-23.846576-18.235616-1.40274-11.221918 7.013699-22.443836 18.235617-23.846575 11.923288-2.10411 22.443836 6.312329 23.846575 18.235616z m81.358904-48.39452c1.40274 11.221918-7.013699 22.443836-18.235616 23.846575-11.923288 1.40274-22.443836-7.013699-23.846576-18.235616-0.70137-5.610959 0.70137-11.221918 4.208219-15.430137 3.506849-4.208219 8.416438-7.013699 14.027398-7.715069 5.610959-0.70137 11.221918 0.70137 15.430137 4.208219 4.909589 2.805479 8.416438 8.416438 8.416438 13.326028z m89.775343-43.484932c1.40274 11.221918-7.013699 22.443836-18.235617 23.846575-11.923288 1.40274-22.443836-7.013699-23.846575-18.235616-1.40274-11.221918 7.013699-22.443836 18.235616-23.846575 11.221918-2.10411 22.443836 6.312329 23.846576 18.235616z" fill="#638BBF" p-id="34171"></path><path d="M624.920548 368.920548c4.909589 8.416438 0 20.339726-10.520548 25.950685l-301.589041 160.613699c-10.520548 5.610959-22.443836 2.805479-27.353425-5.610959-4.909589-8.416438 0-20.339726 10.520548-25.950685l301.589041-160.613699c10.520548-5.610959 22.443836-3.506849 27.353425 5.610959zM672.613699 455.890411c4.909589 8.416438 0 20.339726-10.520548 25.950685l-301.589041 160.613699c-10.520548 5.610959-22.443836 2.805479-27.353425-5.610959-4.909589-8.416438 0-20.339726 10.520548-25.950685l301.589041-160.613699c10.520548-6.312329 22.443836-3.506849 27.353425 5.610959z m32.964383 112.920548l-301.589041 160.613699c-10.520548 5.610959-22.443836 2.805479-27.353425-5.610959-4.909589-8.416438 0-20.339726 10.520548-25.950685l301.589041-160.613699c10.520548-5.610959 22.443836-2.805479 27.353425 5.610959 4.208219 9.117808-0.70137 20.339726-10.520548 25.950685z" fill="#FFFFFF" p-id="34172"></path><path d="M201.994521 769.40274c0 3.506849 2.805479 6.312329 6.312328 6.312328s6.312329-2.805479 6.312329-6.312328-2.805479-6.312329-6.312329-6.312329-6.312329 2.805479-6.312328 6.312329z m-50.498631-182.356165c-4.909589 0-8.416438-2.10411-8.416438-4.909589s4.208219-4.909589 8.416438-4.909589h34.367124c4.909589 0 8.416438 2.10411 8.416438 4.909589s-4.208219 4.909589-8.416438 4.909589h-34.367124z" fill="#CFE3F6" p-id="34173"></path><path d="M169.030137 607.386301c-2.805479 0-5.610959-4.208219-5.610959-8.416438v-34.367123c0-4.909589 2.805479-8.416438 5.610959-8.416439s5.610959 4.208219 5.610959 8.416439v34.367123c0 4.208219-2.805479 8.416438-5.610959 8.416438zM130.454795 759.583562c-4.909589 0-8.416438-2.10411-8.416439-4.909589s4.208219-4.909589 8.416439-4.909589h34.367123c4.909589 0 8.416438 2.10411 8.416438 4.909589s-4.208219 4.909589-8.416438 4.909589h-34.367123z" fill="#CFE3F6" p-id="34174"></path><path d="M147.287671 779.923288c-2.805479 0-5.610959-4.208219-5.610959-8.416439v-34.367123c0-4.909589 2.805479-8.416438 5.610959-8.416438s5.610959 4.208219 5.610959 8.416438v34.367123c0 4.208219-2.10411 8.416438-5.610959 8.416439z" fill="#CFE3F6" p-id="34175"></path><path d="M1079.408219 100.99726c0 3.506849 2.805479 6.312329 6.312329 6.312329s6.312329-2.805479 6.312329-6.312329c0-2.10411-1.40274-4.208219-2.80548-5.610959s-4.208219-1.40274-6.312329 0c-2.805479 1.40274-3.506849 3.506849-3.506849 5.610959z" fill="#BCD9F2" p-id="34176"></path><path d="M1193.731507 80.657534h-7.013699v-7.013698c0-3.506849-3.506849-7.013699-7.013698-7.013699s-7.013699 3.506849-7.013699 7.013699v7.013698h-7.013699c-3.506849 0-7.013699 3.506849-7.013698 7.013699s3.506849 7.013699 7.013698 7.013699h7.013699v7.013698c0 3.506849 3.506849 7.013699 7.013699 7.013699s7.013699-3.506849 7.013698-7.013699v-7.013698h7.013699c3.506849 0 7.013699-3.506849 7.013698-7.013699 0-4.208219-3.506849-7.013699-7.013698-7.013699z m-96.789041-56.109589v-7.013698c0-3.506849-3.506849-7.013699-7.013699-7.013699s-7.013699 3.506849-7.013699 7.013699v7.013698h-7.013698c-3.506849 0-7.013699 3.506849-7.013699 7.013699s3.506849 7.013699 7.013699 7.013698h7.013698v7.013699c0 3.506849 3.506849 7.013699 7.013699 7.013699s7.013699-3.506849 7.013699-7.013699v-7.013699h7.013698c3.506849 0 7.013699-3.506849 7.013699-7.013698s-2.805479-7.013699-7.013699-7.013699h-7.013698z" fill="#BFCDE9" p-id="34177"></path><path d="M1082.915068 169.731507l6.312329 607.386301c0 72.241096 3.506849 72.241096-76.449315 72.241096h-568.109589c-42.082192 0-65.928767-10.520548-65.928767-50.49863v-722.410959C378.739726 17.534247 386.454795 4.208219 444.668493 4.208219H911.780822" fill="#FFFFFF" p-id="34178"></path><path d="M916.690411 23.145205l8.416438 122.038357 11.221918 16.131506h124.142466L932.821918 9.117808l-16.131507 14.027397z" fill="#BCD9F2" p-id="34179"></path><path d="M1028.909589 851.463014H455.189041c-70.136986 0-79.254795-2.805479-79.254794-51.90137V61.720548C375.934247 1.40274 394.871233 0 455.189041 0h469.216438l171.134247 178.147945 1.40274 598.268493c-0.70137 75.046575-4.208219 75.046575-68.032877 75.046576zM927.210959 25.950685v102.4c0 14.728767 16.832877 30.158904 32.263014 30.158904h93.282191L927.210959 25.950685z m154.30137 144.482192l-113.621918 1.402739c-44.887671 0-54.005479-19.638356-54.005479-51.901369V11.923288l-492.361644 1.402739c-20.339726 0-32.263014 16.131507-32.263014 30.158905V806.575342c0 18.936986 11.923288 30.158904 32.263014 30.158905h627.726027c28.054795 0 32.263014-16.131507 32.263014-30.158905V170.432877z" fill="#638BBF" p-id="34180"></path><path d="M979.813699 470.619178c0 12.624658-9.819178 23.145205-23.145206 23.145206h-364.712329c-12.624658 0-23.145205-9.819178-23.145205-23.145206 0-12.624658 9.819178-23.145205 23.145205-23.145205h365.413699c11.923288 0 22.443836 10.520548 22.443836 23.145205z m-476.230137 18.235617c7.013699 4.208219 15.430137 4.208219 23.145205 0 7.013699-4.208219 11.221918-11.221918 11.221918-19.638357s-4.909589-16.131507-11.923288-19.638356c-7.013699-4.208219-15.430137-4.208219-23.145205 0-7.013699 4.208219-11.221918 11.221918-11.221918 19.638356 0 7.715068 4.208219 15.430137 11.923288 19.638357z m450.980822-139.572603H589.150685c-12.624658 0-23.145205-9.819178-23.145206-23.145206 0-12.624658 9.819178-23.145205 23.145206-23.145205h365.413699c12.624658 0 23.145205 10.520548 23.145205 23.145205-0.70137 12.624658-10.520548 23.145205-23.145205 23.145206z m-453.786302-4.909589c7.013699 4.208219 15.430137 4.208219 23.145206 0 7.013699-4.208219 11.221918-11.221918 11.221917-19.638356 0-8.416438-4.208219-15.430137-11.221917-19.638357-7.013699-4.208219-15.430137-4.208219-23.145206 0-7.013699 4.208219-11.221918 11.221918-11.221918 19.638357 0 8.416438 4.208219 16.131507 11.221918 19.638356z m319.123288-142.378082H589.150685c-12.624658 0-23.145205-9.819178-23.145206-23.145206 0-12.624658 9.819178-23.145205 23.145206-23.145205h230.750685c12.624658 0 23.145205 10.520548 23.145205 23.145205 0 12.624658-9.819178 23.145205-23.145205 23.145206z m-319.123288-4.20822c7.013699 4.208219 15.430137 4.208219 23.145206 0 7.013699-4.208219 11.221918-11.221918 11.221917-19.638356 0-8.416438-4.208219-15.430137-11.221917-19.638356-7.013699-4.208219-15.430137-4.208219-23.145206 0-7.013699 4.208219-11.221918 11.221918-11.221918 19.638356 0 7.715068 4.208219 15.430137 11.221918 19.638356z m455.890411 436.953425h-364.712329c-12.624658 0-23.145205-9.819178-23.145205-23.145205 0-12.624658 9.819178-23.145205 23.145205-23.145206h365.413699c12.624658 0 23.145205 10.520548 23.145205 23.145206-0.70137 13.326027-11.221918 23.145205-23.846575 23.145205z m-453.084931-2.805479c7.013699 4.208219 15.430137 4.208219 23.145205 0 7.013699-4.208219 11.221918-11.221918 11.221918-19.638357 0-8.416438-4.208219-15.430137-11.221918-19.638356-7.013699-4.208219-15.430137-4.208219-23.145205 0-7.013699 4.208219-11.221918 11.221918-11.221918 19.638356s3.506849 15.430137 11.221918 19.638357z m453.084931 145.183561h-364.712329c-12.624658 0-23.145205-9.819178-23.145205-23.145205 0-12.624658 9.819178-23.145205 23.145205-23.145206h365.413699c6.312329 0 11.923288 2.10411 16.131507 6.312329 4.208219 4.208219 7.013699 9.819178 7.013698 16.131507-0.70137 13.326027-11.221918 23.846575-23.846575 23.846575z m-453.084931-3.506849c7.013699 4.208219 15.430137 4.208219 23.145205 0 7.013699-4.208219 11.221918-11.221918 11.221918-19.638356s-4.208219-15.430137-11.221918-19.638356c-7.013699-4.208219-15.430137-4.208219-23.145205 0-7.013699 4.208219-11.221918 11.221918-11.221918 19.638356-0.70137 8.416438 3.506849 15.430137 11.221918 19.638356z" fill="#C7DBF1" p-id="34181"></path></svg>